<svg xmlns="http://www.w3.org/2000/svg" version="1.1" xmlns:xlink="http://www.w3.org/1999/xlink" xmlns:svgjs="http://svgjs.dev/svgjs" viewBox="0 0 7.719107135895974 7.711823716478261"><g transform="matrix(1,0,0,1,2.0896712662320613,2.837560633261838)"><g><path d=" M -0.7718096131012809 0.8359920616172601 Q -0.8412382835940745 0.9055830790951149 -0.9499432132583141 0.8955711728484143 L -0.9193652810601899 0.6888201388425672 Q -0.8823245056783204 0.6912657387914334 -0.8627276239086374 0.674957390472089 Q -0.8431307421389543 0.6586490421527447 -0.8387415652684103 0.6289718602380298 Q -0.8347913060849205 0.6022623965147864 -0.8455856847720581 0.5829755774727912 Q -0.8563800634591957 0.5636887584307959 -0.8801218089909677 0.5601774169343606 Q -0.9107882303028397 0.5556419341681317 -0.9318481710293708 0.5818426764590477 Q -0.952908111755902 0.6080434187499637 -0.9831920223157147 0.6692715557557984 Q -1.016039635252581 0.7341640385588921 -1.043526282858064 0.7730611361808483 Q -1.0710129304635472 0.8119582338028044 -1.116675001159641 0.8370475801423357 Q -1.1623370718557344 0.8621369264818669 -1.2286161114652643 0.852334431470985 Q -1.2958843904719515 0.8423856305644183 -1.3388881007807907 0.8016556551203617 Q -1.3818918110896297 0.7609256796763051 -1.3978444422774703 0.6979136684547553 Q -1.4137970734653111 0.6349016572332054 -1.402677825393266 0.559719463049261 Q -1.384682200224035 0.43804301719893 -1.3170474515546648 0.3737465105097547 Q -1.249412702885295 0.30945000382057963 -1.145800276102526 0.3197196199860135 L -1.1769634318833895 0.5304276115804891 Q -1.2087653984881035 0.5267350623157325 -1.227299887912787 0.5426950968321831 Q -1.2458343773374705 0.5586551313486339 -1.25007724831233 0.5873430738661916 Q -1.2532959780173956 0.6091063406036492 -1.2424841483939395 0.6248576688077518 Q -1.2316723187704839 0.6406089970118546 -1.2079305732387118 0.6441203385082899 Q -1.1881457852955686 0.647046456421986 -1.1715340726536754 0.6338346812534796 Q -1.154922360011782 0.6206229060849733 -1.1411703107408813 0.599406611855049 Q -1.1274182614699806 0.5781903176251246 -1.1050066658096496 0.5360154390840093 Q -1.072451664664153 0.47310143507522984 -1.0438294717658279 0.43336140395180134 Q -1.0152072788675026 0.39362137282837284 -0.9705344475685663 0.3683857205931568 Q -0.9258616162696298 0.3431500683579408 -0.8645287736458858 0.3522210338903987 Q -0.8022066916249845 0.3614383053185414 -0.7573533574811977 0.39991464111323216 Q -0.7125000233374109 0.43839097690792306 -0.692517281613099 0.5014935920136336 Q -0.6725345398887872 0.5645962071193441 -0.6843853174392563 0.6447245982890744 Q -0.7023809426084873 0.7664010441394054 -0.7718096131012809 0.8359920616172601 Z M -1.0533987549742263 -0.5022670207346189 L -0.9100463570434641 -0.44073580908150434 L -0.9841993557023457 -0.2679777910623806 L -0.4797091860613938 -0.051435257744689045 L -0.5570176314717172 0.1286741652965251 L -1.061507801112669 -0.08786836802116643 L -1.1348719380836902 0.08305179874243476 L -1.2782243360144525 0.021520587089320253 L -1.0533987549742263 -0.5022670207346189 Z M -0.12662578278647318 -0.5954381252151186 L -0.41723838352050757 -0.6478243475889518 L -0.43031670714802117 -0.6313939656367872 L -0.2268929305974112 -0.4694718635818562 L -0.3489572844542053 -0.31612163202831944 L -0.9005486785625902 -0.7551796395234207 L -0.7081104880434607 -0.9969409739624149 Q -0.6551744162178101 -1.063444900911653 -0.5953497799505643 -1.091234519395751 Q -0.5355251436833184 -1.1190241378798493 -0.4765482684756094 -1.1104230803440391 Q -0.4175713932679003 -1.101822022808229 -0.3674978482708271 -1.0619642746100921 Q -0.31116511014911974 -1.017124307887188 -0.2931240609535872 -0.952278178134331 Q -0.2750830117580546 -0.8874320483814739 -0.30441890751001893 -0.813645835438744 L 0.009762449329026424 -0.7667835370019785 L -0.12662578278647318 -0.5954381252151186 Z M -0.5351581919856433 -0.7148461259266363 L -0.47474879237284207 -0.7907388425628255 Q -0.44983769974900656 -0.8220348081859962 -0.45224773710809496 -0.8495155599939034 Q -0.45465777446718325 -0.8769963118018107 -0.48282414352803693 -0.8994162951632627 Q -0.5094257143077321 -0.9205907238935229 -0.5374494325187436 -0.9166956991657678 Q -0.565473150729755 -0.9128006744380124 -0.5897614660379947 -0.882287107955421 L -0.6501708656507958 -0.8063943913192319 L -0.5351581919856433 -0.7148461259266363 Z M -0.06879130239762765 -1.3984647689115164 L 0.00015415020624470754 -1.3064238836199937 L 0.18023414316791903 -1.4413171604536572 L 0.26956346871554493 -1.322064187336815 L 0.08948347575387064 -1.1871709105031516 L 0.16562323645553834 -1.08552575892034 L 0.3697138951454359 -1.2384048059984916 L 0.46383942609159207 -1.1127489886874566 L 0.10287908464396929 -0.8423629093453139 L -0.319786516101509 -1.40661355395856 L 0.0411738253461138 -1.676999633300703 L 0.1352993562922699 -1.551343815989668 L -0.06879130239762765 -1.3984647689115164 Z M 0.5390570630134192 -1.7576311223354701 L 0.5848964154327511 -1.6521619146501163 L 0.7912492130780086 -1.7418476041662005 L 0.8506410696908819 -1.6051961959477854 L 0.6442882720456244 -1.5155105064317014 L 0.6949108612391475 -1.3990358162052672 L 0.9287773652371059 -1.5006795976568292 L 0.9913580463661068 -1.356691201077694 L 0.5777353275305018 -1.1769212189810099 L 0.2967201670467718 -1.8234933182694832 L 0.7103428858823767 -2.003263300366167 L 0.7729235670113777 -1.859274903787032 L 0.5390570630134192 -1.7576311223354701 Z M 1.5238789589098456 -2.17839582149555 L 1.5496314956490393 -2.0245361229013548 L 1.3642108332406508 -1.993501014523352 L 1.454839952918968 -1.4520332290860893 L 1.2615290495570308 -1.4196774777983843 L 1.1708999298787137 -1.9611452632356468 L 0.9874518277087122 -1.9304403155850693 L 0.9616992909695183 -2.0843000141792642 L 1.5238789589098456 -2.17839582149555 Z M 2.433586409864079 -1.5023737002022919 L 2.189048542806962 -1.5543470739157224 L 2.1279710351061025 -1.44975960787389 L 1.9264718326510384 -1.4925856678137566 L 2.324421673857628 -2.1287538247374194 L 2.5454839056772616 -2.0817698949004786 L 2.6493257676718756 -1.3389523751168564 L 2.446848413748583 -1.3819863285515768 L 2.433586409864079 -1.5023737002022919 Z M 2.4168410121489425 -1.6592832016843944 L 2.3899012173902277 -1.8981016420493677 L 2.269140140446444 -1.6906751194073064 L 2.4168410121489425 -1.6592832016843944 Z M 3.0505185301320505 -1.117408206708862 L 3.05425077053965 -1.412681081151368 L 3.035888189029814 -1.4228700752280474 L 2.9097387385566376 -1.1955238279634055 L 2.7383546444648306 -1.2906211060124153 L 3.080413731324789 -1.9070791995569252 L 3.3506060021123822 -1.7571554295714966 Q 3.424930736795054 -1.7159142630706508 3.4622077360244967 -1.6614929866390185 Q 3.4994847352539398 -1.6070717102073866 3.5007296995561346 -1.5474839592522929 Q 3.50197466385833 -1.4878962082971994 3.4709224914341634 -1.4319340551243644 Q 3.435988797456976 -1.368976632804925 3.3750067904656627 -1.340486374411723 Q 3.3140247834743497 -1.311996116018521 3.2364103521166734 -1.328759171975731 L 3.242014023020345 -1.0111515541949174 L 3.0505185301320505 -1.117408206708862 Z M 3.100903675042912 -1.5400408334336708 L 3.18572131344549 -1.4929773846032934 Q 3.220697659178512 -1.4735697768381895 3.247404445733447 -1.4804797371788228 Q 3.2741112322883827 -1.4873896975194563 3.2915780792769764 -1.5188684086791757 Q 3.3080745458773144 -1.5485983025522443 3.299610377474629 -1.5755956700767082 Q 3.2911462090719437 -1.602593037601172 3.257044271982247 -1.6215154551721487 L 3.1722266335796694 -1.6685789040025258 L 3.100903675042912 -1.5400408334336708 Z M 4.2061761566861975 -1.0671491146776657 L 4.097196706721342 -0.9555270761487196 L 3.9626778397762017 -1.086861285080725 L 3.5791540062460365 -0.6940375725653957 L 3.438910932196848 -0.8309604712391887 L 3.822434765727013 -1.223784183754518 L 3.689346950557885 -1.3537212202510767 L 3.7983264005227406 -1.4653432587800228 L 4.2061761566861975 -1.0671491146776657 Z M 4.460106230494806 -0.7070954676673797 L 3.8788074808877635 -0.30820104090098677 L 3.767909172169731 -0.4698103386640794 L 4.349207921776773 -0.8687047654304724 L 4.460106230494806 -0.7070954676673797 Z M 4.034552768672012 -0.14988753975100244 Q 4.057458130419501 -0.24548353549986554 4.1554102795967225 -0.29367457690346416 L 4.237226854166425 -0.10135440602770729 Q 4.20435414316789 -0.08410955544538071 4.196148746095815 -0.05997096686009687 Q 4.187943349023741 -0.035832378274813004 4.199687354942838 -0.008226612120398158 Q 4.210256960270024 0.016618577418575198 4.2295302251589835 0.027437138345057344 Q 4.248803490047942 0.038255699271539434 4.270888102971474 0.028860494536262604 Q 4.299414061331037 0.01672502175319668 4.303704789763412 -0.016615488883558793 Q 4.307995518195788 -0.04995599952031424 4.301874208345836 -0.11798929699824702 Q 4.2960274154503 -0.19048629702470815 4.299174206142245 -0.23801100331881472 Q 4.302320996834189 -0.2855357096129213 4.328177767132746 -0.33076763892980643 Q 4.3540345374313025 -0.37599956824669156 4.415687415176162 -0.40222784813267276 Q 4.478260485126169 -0.4288475948826238 4.536199680450782 -0.4165472028101589 Q 4.594138875775395 -0.40424681073769403 4.640631692742266 -0.358821950028111 Q 4.687124509709137 -0.31339708931852794 4.716875991370848 -0.2434624817273437 Q 4.7650264156391415 -0.13027884049424276 4.740888178344965 -0.04013536873765894 Q 4.7167499410507885 0.05000810301892494 4.623007286035333 0.09532161789752708 L 4.539624844009751 -0.10067932179881844 Q 4.56867952771049 -0.11412645365100141 4.5761604660094015 -0.13741347926974182 Q 4.583641404308314 -0.1607005048884822 4.572288865253188 -0.18738607883774994 Q 4.563676594245851 -0.20763030735098748 4.546233559483359 -0.21542392899143945 Q 4.528790524720868 -0.22321755063189141 4.5067059117973365 -0.21382234589661456 Q 4.488302067694393 -0.2059930086172172 4.481027017111292 -0.1860537599098731 Q 4.473751966528191 -0.166114511202529 4.473093686245453 -0.14083968841246067 Q 4.472435405962715 -0.1155648656223923 4.475328339559004 -0.06789274656725211 Q 4.480392198726601 0.0027638690489147077 4.476716682693479 0.05160023441213829 Q 4.473041166660357 0.1004365997753619 4.448104588566948 0.14527706222827713 Q 4.423168010473539 0.19011752468119247 4.366116093754415 0.21438847024732433 Q 4.308143984830143 0.23905088267742602 4.249803168357735 0.2296381714137838 Q 4.191462351885326 0.2202254601501416 4.1414844995298505 0.17682656299901167 Q 4.091506647174376 0.13342766584788174 4.0597978311928165 0.058892097230961615 Q 4.0116474069245225 -0.05429154400213934 4.034552768672012 -0.14988753975100244 Z M 4.973168933671486 0.8447126367620109 L 4.818774822714212 0.8670388209794943 L 4.791868908400835 0.6809741231591897 L 4.248520402531967 0.7595451176168717 L 4.220469555694616 0.5655627730808096 L 4.763818061563484 0.4869917786231277 L 4.737198380381099 0.3029064924817627 L 4.891592491338374 0.2805803082642793 L 4.973168933671486 0.8447126367620109 Z" fill="#382d5e" fill-rule="nonzero"></path></g><g><path d=" M 0.10881531726227434 2.90504818126428 L 0.007658116550447902 2.9974398515822647 L -0.11777874972068503 2.860102338207084 L -0.5349599059409916 3.2411336792995042 L -0.6502808958999364 3.114871771841677 L -0.23309973967962994 2.733840430749257 L -0.3585366059507629 2.5965029173740763 L -0.25737940523893643 2.504111247056091 L 0.10881531726227434 2.90504818126428 Z M 0.1097369754967451 3.757054583390801 L 0.13122677479502826 3.4552612956488113 L 0.09681218316158319 3.4329759667819713 L -0.047227137563114197 3.6554117419737504 L -0.19076116608309251 3.562465614260833 L 0.19080714768572848 2.973220655073553 L 0.4317092891198442 3.1292179571414334 Q 0.5013778526704769 3.1743321594816214 0.5347188056806764 3.230471547190891 Q 0.5680597586908758 3.28661093490016 0.5649527842907414 3.3447624328179 Q 0.561845809890607 3.40291393073564 0.5281460442870929 3.454955508327679 Q 0.49009792183151246 3.5137121281896584 0.4270474472657251 3.5384080318384217 Q 0.3639969726999379 3.5631039354871854 0.28686316490206976 3.5405567473121256 L 0.27173737025905986 3.8619586924469016 L 0.1097369754967451 3.757054583390801 Z M 0.1625810805490865 3.3314109524491213 L 0.25155539062579824 3.389026680739 Q 0.2910062639616987 3.41457327724489 0.3232332265793396 3.408040828971756 Q 0.35546018919698064 3.4015083806986217 0.3782890626703288 3.366254408781434 Q 0.4000308469306606 3.3326791974317316 0.39280693621240104 3.3006001526527076 Q 0.3855830254941415 3.268521107873684 0.346132152158241 3.242974511367794 L 0.2571578420815293 3.1853587830779153 L 0.1625810805490865 3.3314109524491213 Z M 1.017655240445452 4.00532923812146 L 0.7665457335592365 3.930576207738995 L 0.6909122409766155 4.037438618341389 L 0.5193526923787813 3.986366891477033 L 0.9630872041253046 3.386017257442769 L 1.1528569841385514 3.442510005594403 L 1.1960065544462166 4.187800629835889 L 1.0225301393836022 4.13615826915182 L 1.017655240445452 4.00532923812146 Z M 1.0131460103213752 3.8662621074122656 L 1.0030887649366147 3.595122195530465 L 0.8473370611178818 3.8169022820070504 L 1.0131460103213752 3.8662621074122656 Z M 1.5153677490024078 3.6874872446447466 Q 1.5588881921287403 3.6051876636610767 1.6385531461017893 3.5582409373804085 Q 1.7182181000748384 3.5112942110997407 1.8202014570412481 3.509451685153697 Q 1.9451810611667504 3.5071936876708008 2.0353587619750773 3.571575224441244 Q 2.125536462783404 3.6359567612116868 2.157590861477926 3.7493962407782497 L 1.9696215368731704 3.7527922689925255 Q 1.9478301482661067 3.7091787919174757 1.9089209586585991 3.686878007983115 Q 1.8700117690510916 3.664577224048755 1.8210197642338948 3.66546235906205 Q 1.7420326544265774 3.6668894134712406 1.694034168501855 3.722765574299757 Q 1.6460356825771325 3.7786417351282733 1.647697568724544 3.870626723764643 Q 1.6493594548719557 3.9626117124010123 1.699344978581627 4.016717603202938 Q 1.7493305022912982 4.0708234940048635 1.8283176120986155 4.069396439595673 Q 1.8773096169158123 4.068511304582378 1.915387863449614 4.044819594198553 Q 1.9534661099834159 4.021127883814729 1.9736678683625208 3.9767557195854257 L 2.1616371929672757 3.9733596913711495 Q 2.133701381681557 4.087883009729502 2.045899094225237 4.1549800164990875 Q 1.9580968067689173 4.222077023268673 1.833117202643415 4.224335020751569 Q 1.7311338456770051 4.226177546697612 1.6498250695364076 4.182139121174915 Q 1.56851629339581 4.138100695652217 1.5220604535417124 4.057926791272735 Q 1.4756046136876149 3.9777528868932523 1.473725959781845 3.8737698562608345 Q 1.4718473058760755 3.7697868256284166 1.5153677490024078 3.6874872446447466 Z M 2.8835535179200265 4.022447835777656 L 2.562582757905748 3.801599989476506 L 2.6593446067158615 4.096111694871807 L 2.4968881498687763 4.149486779215451 L 2.2777693825632928 3.4825602721589943 L 2.440225839410378 3.4291851878153508 L 2.5363634182281687 3.7217968176919727 L 2.6625346750958636 3.356145598713523 L 2.8534922647231395 3.29340646448503 L 2.7024564328623564 3.705120172653851 L 3.0821114096220197 3.9572116215798694 L 2.8835535179200265 4.022447835777656 Z M 3.1660652199107746 3.255177929941407 L 3.2429839620296215 3.374540851784224 L 3.4354776881000793 3.25049583808552 L 3.506979617393655 3.361452920361941 L 3.3144858913231974 3.485497934060645 L 3.3979048088323696 3.614947863383136 L 3.6156160536020137 3.4746524112086195 L 3.6898263893082253 3.589812413268238 L 3.3283752879532176 3.8227353647548874 L 2.9481150276191994 3.2326454271939213 L 3.3095661289742075 2.999722475707272 L 3.3837764646804187 3.1148824777668906 L 3.1660652199107746 3.255177929941407 Z M 4.17066683466576 3.1381438376946913 L 3.877427738234072 3.0636332188278015 L 3.84940874013236 3.093565404604591 L 4.042872867714048 3.274663806969317 L 3.9260131439239805 3.399502923257878 L 3.4135157191604124 2.919763004540756 L 3.6096487058723983 2.710237704103229 Q 3.6663700922734255 2.649643279238021 3.727519964870427 2.626753476238203 Q 3.788669837467429 2.603863673238385 3.8453558454351735 2.6172033321800816 Q 3.902041853402918 2.6305429911217786 3.9473051587239167 2.6729131833731485 Q 3.998408890537948 2.7207504972053402 4.011567909872236 2.787174063882837 Q 4.0247269292065235 2.8535976305603334 3.9888971101585797 2.925529710100631 L 4.302561142803089 2.9972435485502915 L 4.17066683466576 3.1381438376946913 Z M 3.761072289425249 3.01087519069466 L 3.8335116503711393 2.9334895396619842 Q 3.865630989658468 2.8991770340154206 3.8648994331346653 2.866302806647276 Q 3.8641678766108623 2.833428579279131 3.8335056375224434 2.804726190979816 Q 3.804303505057283 2.7773905830757064 3.7714526092461513 2.7788288613541257 Q 3.7386017134350196 2.780267139632544 3.706482374147691 2.8145796452791076 L 3.6340430132018007 2.8919652963117835 L 3.761072289425249 3.01087519069466 Z" fill="#c84449" fill-rule="nonzero"></path></g><g clip-path="url(&quot;#SvgjsClipPath1002&quot;)"><g clip-path="url(&quot;#SvgjsClipPath1000&quot;)"><path d=" M 2.6171982860710945 0.7703315630078779 L 2.0854832402577754 0.7703315630078779 L 2.0143888364854368 0.9226868702919994 L 2.5396342915554735 0.9226868702919994 L 3.241264962384681 1.8874379294826322 L 0.29911785480481856 1.8874379294826322 L 1.0007485256340265 0.9226868702919994 L 1.4451359454803232 0.9226868702919994 L 1.3738993529004402 0.7703315630078779 L 0.9232082292529961 0.7703315630078779 L 0 2.039769538632162 L 3.5404065153240905 2.039769538632162 L 2.6171982860710945 0.7703315630078779 Z" fill="#382d5e" transform="matrix(1,0,0,1,0,0)" fill-rule="nonzero"></path></g><g clip-path="url(&quot;#SvgjsClipPath1000&quot;)"><path d=" M 1.7299401269923111 0 C 1.5195763885186493 0.000026172375654480066 1.3490530944778931 0.17056007571735335 1.3490400097147124 0.38092381541218995 C 1.3489681807862082 0.45825515073857387 1.3725431748949033 0.5337596302918731 1.416603391433035 0.5973114823606122 L 1.7299401269923111 1.2673051435111151 L 2.041594294995652 0.5997049939542665 C 2.0867361267213758 0.5357307680218546 2.1109441526767196 0.4593397093727577 2.110887640539091 0.3810423060851442 C 2.1109190740796833 0.2799903944261675 2.070796768291286 0.18306689565753895 1.999351162434607 0.1116035117340373 C 1.9279055565779284 0.04014012781053692 1.8309920433445805 -0.000006291557818886044 1.729940126992432 0 Z M 1.7318359777595733 0.5974536711681424 C 1.6704512326975949 0.5974536714899493 1.6115809933304632 0.5730670545923414 1.5681776460586623 0.5296592629884413 C 1.524774298786861 0.4862514713845426 1.5003937097894922 0.4273787353601685 1.5003999953460212 0.36599399061999904 C 1.500426165228503 0.238190102372232 1.6040320875021663 0.13459478893768076 1.7318359777596297 0.13458170634103792 C 1.8596452872833833 0.1345817056710014 1.9632588730023774 0.23818468176622706 1.9632719601731252 0.36599399061999904 C 1.963298140545817 0.49379021503003395 1.8597269913598402 0.5974144123360073 1.7319307702981064 0.5974536711681412 Z" fill="#c84449" transform="matrix(1,0,0,1,0,0)" fill-rule="nonzero"></path></g><g clip-path="url(&quot;#SvgjsClipPath1000&quot;)"><path d=" M 0.6453012233932184 1.559091538601927 L 0.6988443259762983 1.5250215334133947 L 0.7397334210756046 1.5892812539892045 L 0.6861903184925247 1.6233512591777368 Z" fill="#382d5e" transform="matrix(1,0,0,1,0,0)" fill-rule="nonzero"></path></g><g clip-path="url(&quot;#SvgjsClipPath1000&quot;)"><path d=" M 0.7729383578128635 1.5681529621410613 L 0.7320353775091779 1.503907319265458 L 0.8149788485769062 1.4511552716663827 L 0.8558581307460008 1.5154009145419862 Z M 0.8890592173076828 1.494309574756192 L 0.8481562370039973 1.4300639318805886 L 0.9310997080717255 1.3773118842815135 L 0.9720026883754109 1.4415575271571168 Z" fill="#382d5e" transform="matrix(1,0,0,1,0,0)" fill-rule="nonzero"></path></g><g clip-path="url(&quot;#SvgjsClipPath1000&quot;)"><path d=" M 1.0309399491026796 1.4279310997674182 L 1.0222190355732728 1.409541347324973 L 1.0050852842641391 1.4204661873713222 L 0.964158605825863 1.3562205444957192 L 1.0541167247324619 1.2989895494589867 L 1.099759331954303 1.3953224665705053 L 1.0309399491026796 1.4279310997674182 Z" fill="#382d5e" transform="matrix(1,0,0,1,0,0)" fill-rule="nonzero"></path></g><g clip-path="url(&quot;#SvgjsClipPath1000&quot;)"><path d=" M 1.0527296809813786 1.4738656779309336 L 1.121569390384139 1.4412723627288124 L 1.175986232131054 1.556205119622158 L 1.1071465227282935 1.5887984348242794 Z" fill="#382d5e" transform="matrix(1,0,0,1,0,0)" fill-rule="nonzero"></path></g><g clip-path="url(&quot;#SvgjsClipPath1000&quot;)"><path d=" M 1.1691474700361055 1.7197499291182763 L 1.128908037500962 1.6347921166103323 L 1.1977274203525854 1.6021834834134194 L 1.2118278104340994 1.6319483404594386 L 1.2439387828046056 1.624625616870888 L 1.2608355527678312 1.6989192688129813 L 1.1691474700361055 1.7197499291182763 Z" fill="#382d5e" transform="matrix(1,0,0,1,0,0)" fill-rule="nonzero"></path></g><g clip-path="url(&quot;#SvgjsClipPath1000&quot;)"><path d=" M 1.3091560491984306 1.6879470324974513 L 1.292235581100614 1.6136533805553577 L 1.4130960675135895 1.5862109406992353 L 1.4299691393422245 1.6604808945067375 Z M 1.4783607301765962 1.649532356325798 L 1.4614402620787796 1.5752624025182957 L 1.5406631260157555 1.557251820229303 L 1.5490522656608914 1.5458293193565475 L 1.6104778305201919 1.5908557750790289 L 1.585286713450193 1.6252654665048403 Z M 1.639768724874395 1.5509007201589735 L 1.5783668581496855 1.5058742644364924 L 1.6515940940351939 1.4059866271363568 L 1.7130196588944944 1.451013082858838 Z" fill="#382d5e" transform="matrix(1,0,0,1,0,0)" fill-rule="nonzero"></path></g><g clip-path="url(&quot;#SvgjsClipPath1000&quot;)"><path d=" M 1.742192062575744 1.4110343298041923 L 1.6807901958510343 1.3659841759471203 L 1.743779837593326 1.2800784380555446 L 1.8213438321089472 1.3530923907297363 L 1.7691368416054603 1.4085697238067512 L 1.7542781112170411 1.3945641262636004 L 1.742192062575744 1.4110343298041923 Z" fill="#382d5e" transform="matrix(1,0,0,1,0,0)" fill-rule="nonzero"></path></g><g clip-path="url(&quot;#SvgjsClipPath1000&quot;)"><path d=" M 1.8125443637277998 1.4494200707764726 L 1.8647415592283163 1.3939522191108256 L 1.9732438564971164 1.4960566895874103 L 1.9210466609966002 1.5515245412530578 Z" fill="#382d5e" transform="matrix(1,0,0,1,0,0)" fill-rule="nonzero"></path></g><g clip-path="url(&quot;#SvgjsClipPath1000&quot;)"><path d=" M 2.0324231169090203 1.656381117222532 L 1.9644094706334831 1.5923724556928367 L 2.016640159271561 1.5369188207504128 L 2.041072936034655 1.5599060113034686 L 2.06920262179391 1.5416110513993873 L 2.1107217535969554 1.6054775241215378 L 2.0324231169090203 1.656381117222532 Z" fill="#382d5e" transform="matrix(1,0,0,1,0,0)" fill-rule="nonzero"></path></g><g clip-path="url(&quot;#SvgjsClipPath1000&quot;)"><path d=" M 2.1208069203065683 1.50806964825182 L 2.249786430344698 1.4242901708726579 L 2.291263080702055 1.488143971450857 L 2.1622835706639254 1.5719234488300193 Z" fill="#382d5e" transform="matrix(1,0,0,1,0,0)" fill-rule="nonzero"></path></g><g clip-path="url(&quot;#SvgjsClipPath1000&quot;)"><path d=" M 2.34282128377905 1.4546151993166359 L 2.3012784538414133 1.3907724247290756 L 2.3708087807307603 1.34560378019905 L 2.4481831901696554 1.3753449391104782 L 2.420811844717305 1.4464393428828166 L 2.3797192793368938 1.4306326871107664 L 2.34282128377905 1.4546151993166359 Z" fill="#382d5e" transform="matrix(1,0,0,1,0,0)" fill-rule="nonzero"></path></g><g clip-path="url(&quot;#SvgjsClipPath1000&quot;)"><path d=" M 2.7022034948482205 1.5547398179626801 L 2.601723404183316 1.5160644623105277 L 2.6290947496356663 1.444970058538189 L 2.7296222365697522 1.4836454141903412 Z M 2.561531367917354 1.500589580422749 L 2.461051277252449 1.4619616210397783 L 2.4883752264356174 1.3908672172674401 L 2.588855317100523 1.4295188747850014 Z" fill="#382d5e" transform="matrix(1,0,0,1,0,0)" fill-rule="nonzero"></path></g><g clip-path="url(&quot;#SvgjsClipPath1000&quot;)"><path d=" M 2.7451218356119096 1.5699182124885922 L 2.7724568518239323 1.4988776271799094 L 2.831668394760954 1.5216610611717543 L 2.804333378548932 1.592701646480437 Z" fill="#382d5e" transform="matrix(1,0,0,1,0,0)" fill-rule="nonzero"></path></g></g><g transform="matrix(-0.4034504652947586,-0.9150014874596887,0.9150014874596887,-0.4034504652947586,-3.040368282998289,1.7527823486290814)"><g clip-path="url(&quot;#SvgjsClipPath1003&quot;)"><path d=" M -0.9488072044970043 2.065673670312087 C -0.9365551600142457 2.065673670312087 -0.9303306700142456 2.057311655484501 -0.9188575165659698 2.042140982381053 L -0.8037254727728664 1.888307790312087 C -0.7975009827728663 1.880138285484501 -0.7945845669107974 1.8723604389327768 -0.7945845669107974 1.8639962113465698 C -0.7945845669107974 1.8556341965189838 -0.7975009827728663 1.847854137208639 -0.8037254727728664 1.8396868451396733 L -0.9188575165659698 1.6858525466913976 C -0.9303306700142456 1.6706832012431216 -0.9365551600142457 1.6623205225879492 -0.9488072044970043 1.6623205225879492 C -0.9612539717383836 1.6623205225879492 -0.9674784617383836 1.6706832012431216 -0.9789516151866594 1.6858525466913976 L -1.0940843228073491 1.8396868451396733 C -1.1003077064280387 1.847854137208639 -1.103225007393556 1.8556341965189838 -1.103225007393556 1.8639962113465698 C -1.103225007393556 1.8723604389327768 -1.1003077064280387 1.880138285484501 -1.0940843228073491 1.888307790312087 L -0.9789516151866594 2.042140982381053 C -0.9674784617383836 2.057311655484501 -0.9612539717383836 2.065673670312087 -0.9488072044970043 2.065673670312087 Z" fill="#382d5e" transform="matrix(1,0,0,1,0,0)" fill-rule="nonzero"></path></g></g><g transform="matrix(0.4034504652947586,-0.9150014874596887,-0.9150014874596887,-0.4034504652947586,4.386802726123609,6.728579583217051)"><g clip-path="url(&quot;#SvgjsClipPath1004&quot;)"><path d=" M 4.489213719821094 2.065673670312087 C 4.501465764303853 2.065673670312087 4.507690254303853 2.057311655484501 4.519163407752129 2.042140982381053 L 4.634295451545232 1.888307790312087 C 4.640519941545232 1.880138285484501 4.643436357407301 1.8723604389327768 4.643436357407301 1.8639962113465698 C 4.643436357407301 1.8556341965189838 4.640519941545232 1.847854137208639 4.634295451545232 1.8396868451396733 L 4.519163407752129 1.6858525466913976 C 4.507690254303853 1.6706832012431216 4.501465764303853 1.6623205225879492 4.489213719821094 1.6623205225879492 C 4.476766952579715 1.6623205225879492 4.470542462579715 1.6706832012431216 4.459069309131439 1.6858525466913976 L 4.343936601510749 1.8396868451396733 C 4.33771321789006 1.847854137208639 4.334795916924542 1.8556341965189838 4.334795916924542 1.8639962113465698 C 4.334795916924542 1.8723604389327768 4.33771321789006 1.880138285484501 4.343936601510749 1.888307790312087 L 4.459069309131439 2.042140982381053 C 4.470542462579715 2.057311655484501 4.476766952579715 2.065673670312087 4.489213719821094 2.065673670312087 Z" fill="#382d5e" transform="matrix(1,0,0,1,0,0)" fill-rule="nonzero"></path></g></g></g><defs><clipPath id="SvgjsClipPath1002"><path d=" M 0 0 h 3.5404065153240905 v 2.039769538632162 h -3.5404065153240905 Z"></path></clipPath><clipPath id="SvgjsClipPath1000"><path d=" M 0 -1.5722563319382894e-16 L 3.5404065153240905 -1.5722563319382894e-16 L 3.5404065153240905 2.039769538632162 L 0 2.039769538632162 Z"></path></clipPath><clipPath id="SvgjsClipPath1003"><path d=" M -1.258593411393556 1.5466490082431217 h 0.6195724137931033 v 0.6416999999999999 h -0.6195724137931033 Z"></path></clipPath><clipPath id="SvgjsClipPath1004"><path d=" M 4.179427512924542 1.5466490082431217 h 0.6195724137931033 v 0.6416999999999999 h -0.6195724137931033 Z"></path></clipPath></defs></svg>