<svg xmlns="http://www.w3.org/2000/svg" version="1.1" xmlns:xlink="http://www.w3.org/1999/xlink" xmlns:svgjs="http://svgjs.dev/svgjs" viewBox="0 0 7.824615779204483 7.832730207985464"><g transform="matrix(1,0,0,1,2.1026472365874938,2.872469574957199)"><g><path d=" M -0.7508613125546866 0.8094532197325396 Q -0.7871505481071763 0.874380805418563 -0.8343575711430448 0.9068846048286472 L -0.8686245452854977 0.8786220061668034 Q -0.8246756221217298 0.8476624817398162 -0.7913794113945755 0.7893712958605348 Q -0.7580832006674211 0.7310801099812534 -0.7480868267559758 0.6628080621972403 Q -0.7335993283335914 0.5638630654088154 -0.7638098029177768 0.5078958676462126 Q -0.7940202775019621 0.4519286698836099 -0.8543767255429013 0.4430912958459554 Q -0.9008808740334611 0.43628217158743465 -0.9324970977082638 0.4589408211620417 Q -0.9641133213830666 0.48159947073664877 -0.984750070270284 0.5190043446886611 Q -1.0053868191575015 0.5564092186406733 -1.031069517570871 0.6213738167092208 Q -1.0610244407459077 0.6948088395360549 -1.085571226934233 0.7382105133266432 Q -1.110118013122558 0.7816121871172317 -1.1519308239054924 0.8083364991650756 Q -1.1937436346884267 0.8350608112129194 -1.2560789826651344 0.8259336872068173 Q -1.306540931027231 0.8185450630114013 -1.344680930088268 0.7856727270490131 Q -1.3828209291493048 0.752800391086625 -1.3995166167219875 0.694264043263453 Q -1.4162123042946704 0.6357276954402812 -1.4041876806040912 0.5536033481058886 Q -1.3957849315191084 0.4962152499686021 -1.3708512829485409 0.4432689264988896 Q -1.3459176343779733 0.390322603029177 -1.3112837109561526 0.3539565288884142 L -1.2734688869731512 0.37869595263139255 Q -1.3082476853791958 0.4160514767400395 -1.3304056216007638 0.4638455753548364 Q -1.3525635578223318 0.5116396739696334 -1.3596624320493 0.5601227223959615 Q -1.373715305519013 0.6560993692807336 -1.3423705059827196 0.7112219920596761 Q -1.3110257064464261 0.7663446148386184 -1.2496798084376026 0.7753268638604968 Q -1.203175659947043 0.7821359881190174 -1.1715594362722401 0.7594773385444104 Q -1.1399432125974374 0.7368186889698033 -1.11930646371022 0.699413815017791 Q -1.0986697148230022 0.6620089410657787 -1.0718526914575248 0.5961997680135709 Q -1.0418977682824881 0.5227647451867368 -1.0174234195862748 0.4798577963800906 Q -0.9929490708900615 0.43695084757344427 -0.9521257100750116 0.4100816605413765 Q -0.9113023492599615 0.38321247350930876 -0.8499564512511381 0.39219472253118715 Q -0.7994945028890413 0.39958334672660323 -0.7619216663040587 0.4328779701808215 Q -0.7243488297190759 0.4661725936350397 -0.7078704546227288 0.5261931164100381 Q -0.6913920795263817 0.5862136391850363 -0.7034167032169608 0.668337986519429 Q -0.7145720770021968 0.7445256340465161 -0.7508613125546866 0.8094532197325396 Z M -1.1641769799512751 -0.13860615925798608 L -1.2590735076235118 0.09484329787514245 L -1.3016872974176543 0.0775209158397342 L -1.092688992425228 -0.4366237218939417 L -1.0500752026310858 -0.41930133985853346 L -1.1449717303033224 -0.18585188272540498 L -0.5391148058387746 0.06042720099539989 L -0.5583200554867273 0.10767292446281873 L -1.1641769799512751 -0.13860615925798608 Z M -0.06582141914381762 -0.696612364484761 L -0.35316619348801037 -0.7054430302062644 Q -0.3715960983144886 -0.6729724495510474 -0.39037087653366304 -0.6483045006533215 L -0.5114984779476917 -0.4891564432486387 L -0.32927395221932976 -0.350465339629576 L -0.3601614905799071 -0.3098825849913819 L -0.917179691496297 -0.7338291899404819 L -0.7651645517216911 -0.9335600019833588 Q -0.6852203347884323 -1.0385977198704495 -0.5900637163192082 -1.0604258659553216 Q -0.49490709784998405 -1.0822540120401938 -0.40657992599038506 -1.015028193255408 Q -0.34053348216744167 -0.9647602386685861 -0.32131377125109983 -0.8967227290706279 Q -0.30209406033475805 -0.8286852194726697 -0.3316374362917608 -0.7518920626352067 L -0.030694414733749342 -0.7427653011321191 L -0.06582141914381762 -0.696612364484761 Z M -0.42617918944971667 -0.675558210971478 Q -0.3583477326578607 -0.7646811231181003 -0.3620042344483812 -0.8416088814024538 Q -0.3656607362389018 -0.9185366396868073 -0.4380731023580325 -0.9736496983301903 Q -0.5104854684771631 -1.0287627569735733 -0.5856072551019607 -1.011793161389164 Q -0.6607290417267581 -0.9948235658047546 -0.728560498518614 -0.9057006536581322 L -0.8496880999326426 -0.7465525962534494 L -0.5473067908637452 -0.5164101535667951 L -0.42617918944971667 -0.675558210971478 Z M 0.4904135144117889 -1.2046825416641067 L 0.5176978959899596 -1.1676479291793407 L 0.12883446489991762 -0.8811619226085482 L -0.2863626460722455 -1.4447321125941164 L 0.0904242809466772 -1.7223210382155054 L 0.11770866252484796 -1.6852864257307394 L -0.21801815065226904 -1.437947575337322 L -0.05431186118324477 -1.2157399004287268 L 0.24599054005192222 -1.4369806467038937 L 0.27268178290013273 -1.4007511344905357 L -0.027620618335034264 -1.1795103882153688 L 0.1426101971635526 -0.948446610321286 L 0.4904135144117889 -1.2046825416641067 Z M 1.1510116711819864 -1.4788143383653842 L 1.167203088103799 -1.4357581190926236 L 0.7151127857398121 -1.2657482414135928 L 0.4687216586687531 -1.920951578172994 L 0.9067718895307527 -2.0856816459862166 L 0.9229633064525652 -2.042625426713456 L 0.5326493186973219 -1.8958467124439822 L 0.6297978202281966 -1.6375093968074181 L 0.9789275982442776 -1.7688006688038538 L 0.9947670278417027 -1.7266804542978924 L 0.6456372498256219 -1.5953891823014565 L 0.746657611924756 -1.3267558142301021 L 1.1510116711819864 -1.4788143383653842 Z M 1.4487729764887165 -2.1371147235962864 L 1.198167184350271 -2.1106432871663854 L 1.1933350967479877 -2.156388788905943 L 1.74526451991004 -2.2146889762813196 L 1.7500966075123234 -2.1689434745417624 L 1.499490815373878 -2.1424720381118614 L 1.5681904956324304 -1.4920903394668483 L 1.5174726567472687 -1.4867330249512731 L 1.4487729764887165 -2.1371147235962864 Z M 2.7366584043249773 -1.547310819670848 L 2.345341187465054 -1.6555089517665722 L 2.2070597482448795 -1.4893516661387756 L 2.154048795221984 -1.5040090485655362 L 2.6509523328966194 -2.0928815935584506 L 2.700107943881487 -2.079290202580909 L 2.823914474329488 -1.3187930342637426 L 2.770903521306592 -1.3334504166905032 L 2.7366584043249773 -1.547310819670848 Z M 2.7298049377234443 -1.593819205963448 L 2.660124340345234 -2.0322443584684287 L 2.376077305734302 -1.691623921429287 L 2.7298049377234443 -1.593819205963448 Z M 3.3776444840166793 -0.9799150886593864 L 3.3604906239350263 -1.2668832839080917 Q 3.326488412516974 -1.282305657871981 3.3002258095527677 -1.298776106728781 L 3.130789661396598 -1.4050370670952328 L 3.009120861777011 -1.2110326774564188 L 2.9659146439971877 -1.2381292223498641 L 3.337828005279769 -1.8311557408964567 L 3.5504703712157615 -1.6977982356365597 Q 3.662298228998833 -1.6276660017947016 3.6926302344428805 -1.5348693453584792 Q 3.722962239886928 -1.442072688922257 3.663987406883547 -1.3480356266955829 Q 3.6198891083314697 -1.2777196252107728 3.553865205544761 -1.252434367434526 Q 3.4878413027580524 -1.227149109658279 3.4086940137942237 -1.249637031965068 L 3.426780966981968 -0.9490994101531153 L 3.3776444840166793 -0.9799150886593864 Z M 3.3241345256352193 -1.3368992400639192 Q 3.419018768602674 -1.2773931022587062 3.495302019999441 -1.2879815656192548 Q 3.5715852713962075 -1.2985700289798034 3.619934008362943 -1.3756634763908604 Q 3.6682827453296785 -1.4527569238019176 3.6445986693143055 -1.5260393537786727 Q 3.6209145932989326 -1.5993217837554279 3.5260303503314776 -1.6588279215606407 L 3.3565942021753084 -1.7650888819270927 L 3.15469837747905 -1.443160200430371 L 3.3241345256352193 -1.3368992400639192 Z M 4.138784356812127 -1.1529324956515348 L 3.9673529665120904 -1.3376357127859329 L 4.001068633131862 -1.3689287443486378 L 4.378625861768846 -0.9621418970883561 L 4.344910195149075 -0.930848865525651 L 4.173478804849038 -1.1155520826600493 L 3.6941299794288147 -0.6706468078337648 L 3.6594355313919027 -0.7080272208252502 L 4.138784356812127 -1.1529324956515348 Z M 4.534891563830639 -0.7225424701930824 L 4.562289108252112 -0.679526489910478 L 3.971873692608523 -0.30348176255692494 L 3.9444761481870496 -0.3464977428395293 L 4.534891563830639 -0.7225424701930824 Z M 4.14425912321005 -0.03725887093908728 Q 4.143161450986927 -0.11163154815115611 4.167749382869122 -0.16340445231691192 L 4.211562787369403 -0.1560979082573228 Q 4.189021870385668 -0.10729312302541837 4.189387410000614 -0.04016364827110566 Q 4.189752949615561 0.026965826483207 4.215284685255553 0.0910683262410914 Q 4.252287200675831 0.18397049980324265 4.30646130949379 0.21728965246023413 Q 4.36063541831175 0.2506088051172256 4.417305744184662 0.228037270710856 Q 4.460969765758873 0.21064608846332528 4.4769916951928 0.17520179728386653 Q 4.493013624626728 0.13975750610440785 4.492147944492939 0.09704625936650563 Q 4.491282264359151 0.05433501262860338 4.480984901643305 -0.014758867860903968 Q 4.4701443777465 -0.09332401943361332 4.469660599317258 -0.14318398291566373 Q 4.469176820888016 -0.19304394639771413 4.491989318462233 -0.2371130960880176 Q 4.5148018160364485 -0.28118224577832107 4.573330185380604 -0.30449383049309625 Q 4.620710293897301 -0.3233651133574381 4.67018439682469 -0.3140075955492755 Q 4.71965849975208 -0.3046500777411128 4.763420439200872 -0.26234000026918836 Q 4.807182378649665 -0.22002992279726394 4.837894466448495 -0.14292111874067837 Q 4.859355925392256 -0.0890378580746306 4.864283964522047 -0.03072221325837865 Q 4.869212003651836 0.027593431557873388 4.8574414046411265 0.07641405219023606 L 4.8123210355507915 0.07393367053574135 Q 4.823721609407299 0.024184028167757166 4.8189706651543815 -0.02828194679417098 Q 4.814219720901463 -0.08074792175609907 4.796088488345527 -0.1262699868015532 Q 4.760196048387857 -0.21638509515683996 4.705462942988479 -0.24840520092400714 Q 4.650729837589101 -0.2804253066911743 4.593130489980568 -0.2574837471306019 Q 4.549466468406356 -0.24009256488307118 4.533444538972429 -0.20464827370361247 Q 4.517422609538502 -0.16920398252415375 4.518288289672291 -0.1264927357862515 Q 4.519153969806079 -0.08378148904834928 4.528892335940505 -0.013388561669017612 Q 4.539732859837311 0.06517658990369171 4.540031625689451 0.11457204251793135 Q 4.540330391541592 0.16396749513217102 4.518446915702997 0.20766661966827166 Q 4.496563439864402 0.2513657442043724 4.438964092255868 0.27430730376494483 Q 4.391583983739171 0.2931785866292867 4.3423893791024915 0.2831715453762118 Q 4.293194774465811 0.27316450412313703 4.248877797285715 0.22946089404778036 Q 4.204560820105619 0.18575728397242364 4.173848732306787 0.10864847991583804 Q 4.145356795433173 0.03711380627298155 4.14425912321005 -0.03725887093908728 Z M 4.97673661709516 0.5764410958053747 L 4.941989030012389 0.32684821691672283 L 4.9875496348888895 0.32050540340161393 L 5.064077058821182 0.8702040057159068 L 5.018516453944682 0.8765468192310157 L 4.983768866861912 0.6269539403423638 L 4.336015919269934 0.7171322020571732 L 4.328983669503183 0.6666193575201842 L 4.97673661709516 0.5764410958053747 Z" fill="#262626" fill-rule="nonzero"></path></g><g><path d=" M -0.1860642620426597 2.73470686586342 L -0.3477374582056025 2.5492944130926887 L -0.2995000721189083 2.5072330937657443 L 0.07247972067875696 2.933832476969947 L 0.02424233459206271 2.975893796296891 L -0.13743086157088014 2.79048134352616 L -0.6167898858074046 3.2084657043376708 L -0.6654232862791841 3.1526912266749307 L -0.1860642620426597 2.73470686586342 Z M 0.1845178471415408 3.8694193690601524 L 0.17750861337709656 3.5934196034043904 Q 0.15343872658214847 3.5808243443884598 0.12938597072028074 3.5646235747941044 L -0.0265422396945858 3.4595978960444906 L -0.15056192417551287 3.6437258891939606 L -0.2119379218920029 3.602385994366985 L 0.17911513728209139 3.0218022321839713 L 0.3964193454134479 3.168167805760561 Q 0.5075596656027677 3.2430265342310305 0.5348410515152922 3.3385656674838073 Q 0.5621224374278164 3.4341048007365846 0.49955394795996133 3.526998202685867 Q 0.4537448753138531 3.5950094433987343 0.38776098392252256 3.618686987123899 Q 0.3217770925311919 3.642364530849064 0.24394669800627133 3.6200838287035926 L 0.25169968247986096 3.914669794478869 L 0.1845178471415408 3.8694193690601524 Z M 0.32049516230986563 3.561926003668939 Q 0.39181023036997153 3.5544989539463057 0.4381779502434713 3.485658307858891 Q 0.48566296457175406 3.4151588510223823 0.46546411781797636 3.3466953089739504 Q 0.44526527106419844 3.2782317669255185 0.35900711211129366 3.2201324552767963 L 0.2047377124455214 3.116224070981965 L 0.008652535631082703 3.4073453574480195 L 0.1629219352968549 3.51125374174285 Q 0.24918009424975973 3.5693530533915725 0.32049516230986563 3.561926003668939 Z M 1.0779736206079715 4.026413441020603 L 0.7060561535271344 3.909036281061034 L 0.5696700095598783 4.06208470390081 L 0.49624015067468735 4.038910238985715 L 1.0120801543607556 3.4676755318843724 L 1.0816954751220405 3.4896461284921894 L 1.176181571260936 4.253499764757954 L 1.1017980778447685 4.230024332766041 L 1.0779736206079715 4.026413441020603 Z M 1.0702835128807704 3.961069258087889 L 1.0232365325608153 3.551940205535062 L 0.7498623104726645 3.8599443202765675 L 1.0702835128807704 3.961069258087889 Z M 1.6189096104995597 4.252385135722419 Q 1.5363194885606524 4.20477083368914 1.4904125802647872 4.122362971377859 Q 1.4445056719689222 4.039955109066578 1.4464688122510996 3.9389741896796338 Q 1.4484319525332772 3.83799327029269 1.497507097126122 3.7574319260686058 Q 1.5465822417189665 3.6768705818445215 1.6314604761890998 3.632511982754457 Q 1.7163387106592332 3.5881533836643924 1.8203190632952944 3.5901748350440608 Q 1.8983043277723404 3.5916909235788115 1.9637864964080007 3.618968855882616 Q 2.029268665043661 3.6462467881864207 2.0742881232386168 3.697131445833226 L 2.0263834618084315 3.743209026208712 Q 1.9460122266964646 3.6586308696517325 1.8210358413165832 3.656201240589631 Q 1.7380515214243422 3.6545879668923966 1.669325760542808 3.6912590698380976 Q 1.6005999996612739 3.7279301727837986 1.5608244288194812 3.7931693785132485 Q 1.5210488579776886 3.858408584242699 1.5194550213129503 3.9403930930519007 Q 1.5178611846482122 4.022377601861103 1.5550710672004262 4.0891134590928075 Q 1.5922809497526405 4.155849316324511 1.6595294961644171 4.195163855689779 Q 1.7267780425761938 4.234478395055046 1.809762362468435 4.23609166875228 Q 1.9357385589313552 4.238540734846878 2.01835596738725 4.156131003503839 L 2.064433547762736 4.2040356649340245 Q 2.0174703863180987 4.253132115591124 1.9504678679348366 4.278334546630621 Q 1.8834653495515745 4.3035369776701184 1.8054800850745285 4.302020889135367 Q 1.7014997324384673 4.299999437755699 1.6189096104995597 4.252385135722419 Z M 2.5597806895910225 3.868909240782827 L 2.460214596682431 4.0465622541063215 L 2.5088711701445177 4.224012353736974 L 2.4375053692061033 4.243580758281509 L 2.2523988397307737 3.5684988575127217 L 2.3237646406691885 3.548930452968187 L 2.4356218720521374 3.9568728015756114 L 2.720134156692005 3.4402464763762435 L 2.8021083874996435 3.4177692549399534 L 2.593721178800696 3.8036095991895684 L 3.007467373998036 4.087297959824481 L 2.922599935044246 4.110568494958523 L 2.5597806895910225 3.868909240782827 Z M 3.697676378658575 3.6275296960836063 L 3.7308471088645687 3.682262708586128 L 3.3075214652903773 3.938817575023108 L 2.9447166036623247 3.3401752507767766 L 3.3552141974312377 3.0913947742318264 L 3.388384927637231 3.1461277867343482 L 3.041172379574359 3.3565546064786185 L 3.170227251782052 3.569500233246242 L 3.47981085374944 3.3818782905185922 L 3.512463291295965 3.435756099700762 L 3.2028796893285767 3.623378042428412 L 3.3376357807904244 3.8457309057199067 L 3.697676378658575 3.6275296960836063 Z M 4.354707883191779 3.0821177370765307 L 4.0808854370260335 3.046815216262746 Q 4.064755678545109 3.068674559604828 4.045065483746565 3.089965314142782 L 3.9174187036732464 3.227988136664689 L 4.08040310048103 3.378719972708714 L 4.030159155133022 3.4330481049779755 L 3.516244390423793 2.957767540875194 L 3.69413511584512 2.7654165860840254 Q 3.785117395259081 2.6670386168396876 3.8837057778493698 2.65469637967494 Q 3.9822941604396584 2.642354142510192 4.064520522793135 2.718399032766637 Q 4.124721966659073 2.774074755990106 4.138024882081653 2.842904491143306 Q 4.151327797504233 2.911734226296506 4.117401034192542 2.985239156275335 L 4.409704634180814 3.022650457160177 L 4.354707883191779 3.0821177370765307 Z M 4.071640254047751 2.9006936005048503 Q 4.075212185260649 2.8290818604937997 4.014276577445126 2.7727271650358984 Q 3.9518726417304344 2.715014525109132 3.8811247091305447 2.724500305669605 Q 3.8103767765306547 2.733986086230078 3.7397636641496703 2.8103391369868778 L 3.6134748285452165 2.9468936316096155 L 3.8711663748494156 3.1852128858954387 L 3.997455210453869 3.048658391272701 Q 4.068068322834854 2.9723053405159012 4.071640254047751 2.9006936005048503 Z" fill="#e8a941" fill-rule="nonzero"></path></g><g clip-path="url(&quot;#SvgjsClipPath1002&quot;)"><g clip-path="url(&quot;#SvgjsClipPath1000&quot;)"><path d=" M 2.6765153920829654 0.7877906295334879 L 2.132749368738264 0.7877906295334879 L 2.0600436562974695 0.9435989712941106 L 2.597193459810059 0.9435989712941106 L 3.314726135888259 1.9302154891156913 L 0.30589716747590245 1.9302154891156913 L 1.0234298435541027 0.9435989712941106 L 1.4778890167840286 0.9435989712941106 L 1.4050378929183527 0.7877906295334879 L 0.9441321465186764 0.7877906295334879 L 0 2.085999595638833 L 3.620647538601642 2.085999595638833 L 2.6765153920829654 0.7877906295334879 Z" fill="#262626" transform="matrix(1,0,0,1,0,0)" fill-rule="nonzero"></path></g><g clip-path="url(&quot;#SvgjsClipPath1000&quot;)"><path d=" M 1.7691481008218513 0 C 1.5540166043061239 0.000026765555617015435 1.379628510122428 0.1744257094931979 1.3796151288015546 0.38955720725777715 C 1.379541671916854 0.4686412072714365 1.4036509780156712 0.5458569470077606 1.4487097908578002 0.6108491606900902 L 1.7691481008218513 1.2960277947321222 L 2.087865708924814 0.6132969196755822 C 2.134030651063033 0.5478727592992055 2.158787336265777 0.4697503467254315 2.158729543317108 0.38967838344517886 C 2.1587616892785624 0.2863361955818814 2.117730037385761 0.18721598841630108 2.0446651630925876 0.11413293312792136 C 1.9716002887994144 0.04104987783954293 1.872490293484812 -0.000006434151906658779 1.7691481008219747 0 Z M 1.7710869198202723 0.6109945721149571 C 1.7083109292230465 0.6109945724440575 1.6481064339655345 0.5860552486508793 1.6037193779067096 0.5416636475320438 C 1.559332321847885 0.49727204641320943 1.5343991625734048 0.43706499791333353 1.5344055905880063 0.3742890076452105 C 1.5344323535939444 0.24358852695037195 1.6403864370702463 0.13764529275565737 1.7710869198203298 0.13763191365042513 C 1.9017929446608681 0.13763191296520264 2.0077548652695314 0.24358298348983864 2.0077682490525377 0.3742890076452105 C 2.0077950227864396 0.5049816508063927 1.901876500507361 0.6109544235067894 1.771183860770367 0.6109945721149558 Z" fill="#e8a941" transform="matrix(1,0,0,1,0,0)" fill-rule="nonzero"></path></g><g clip-path="url(&quot;#SvgjsClipPath1000&quot;)"><path d=" M 0.6599265581572371 1.594427339702535 L 0.7146831805217673 1.559585159887285 L 0.7564990005091506 1.6253012854584574 L 0.7017423781446205 1.6601434652737075 Z" fill="#262626" transform="matrix(1,0,0,1,0,0)" fill-rule="nonzero"></path></g><g clip-path="url(&quot;#SvgjsClipPath1000&quot;)"><path d=" M 0.7904565056563172 1.6036941345440845 L 0.7486264857653799 1.5379924057350864 L 0.8334498169463069 1.484044767104017 L 0.8752556015997637 1.549746495913015 Z M 0.9092091693096146 1.528177134555579 L 0.8673791494186776 1.4624754057465807 L 0.9522024805996044 1.4085277671155114 L 0.9940325004905415 1.4742294959245095 Z" fill="#262626" transform="matrix(1,0,0,1,0,0)" fill-rule="nonzero"></path></g><g clip-path="url(&quot;#SvgjsClipPath1000&quot;)"><path d=" M 1.0543055361039602 1.4602942343733567 L 1.0453869687112227 1.4414876900886708 L 1.0278648920129914 1.4526601345670729 L 0.9860106368845739 1.386958405758075 L 1.0780075983596593 1.3284303072432355 L 1.1246846657466492 1.4269465476005119 L 1.0543055361039602 1.4602942343733567 Z" fill="#262626" transform="matrix(1,0,0,1,0,0)" fill-rule="nonzero"></path></g><g clip-path="url(&quot;#SvgjsClipPath1000&quot;)"><path d=" M 1.0765891181592766 1.5072698900345294 L 1.1469890350412342 1.4739378684289186 L 1.2026391993025003 1.5914755019038982 L 1.1322392824205427 1.624807523509509 Z" fill="#262626" transform="matrix(1,0,0,1,0,0)" fill-rule="nonzero"></path></g><g clip-path="url(&quot;#SvgjsClipPath1000&quot;)"><path d=" M 1.1956454410888646 1.7587269487053372 L 1.1544940078473749 1.6718436223385882 L 1.2248731374900639 1.6384959355657436 L 1.2392931037908215 1.6689353938409563 L 1.2721318505765804 1.6614467054595548 L 1.289411574900009 1.7374241749601846 L 1.1956454410888646 1.7587269487053372 Z" fill="#262626" transform="matrix(1,0,0,1,0,0)" fill-rule="nonzero"></path></g><g clip-path="url(&quot;#SvgjsClipPath1000&quot;)"><path d=" M 1.338827224122269 1.7262032600068227 L 1.32152326456136 1.6502257905061928 L 1.4451229757107107 1.6221613855040464 L 1.4623784647966591 1.6981146197671957 Z M 1.5118668197313598 1.686917940051314 L 1.4945628601704508 1.6109647057881644 L 1.5755812590669762 1.592545925303163 L 1.58416053313499 1.5808645408376758 L 1.6469782686838363 1.626911492050179 L 1.6212162112423145 1.6621010568715233 Z M 1.6769330222094434 1.5860508816584515 L 1.6141395218980772 1.540003930445948 L 1.6890264057120954 1.4378524044666319 L 1.751844141260942 1.4838993556791351 Z" fill="#262626" transform="matrix(1,0,0,1,0,0)" fill-rule="nonzero"></path></g><g clip-path="url(&quot;#SvgjsClipPath1000&quot;)"><path d=" M 1.781677718599148 1.4430145100499276 L 1.7188842182877817 1.396943323599944 L 1.7833014795103257 1.309090587733984 L 1.862623411783232 1.38375935441068 L 1.8092331836142093 1.4404940453519801 L 1.7940376897140828 1.4261710200011435 L 1.781677718599148 1.4430145100499276 Z" fill="#262626" transform="matrix(1,0,0,1,0,0)" fill-rule="nonzero"></path></g><g clip-path="url(&quot;#SvgjsClipPath1000&quot;)"><path d=" M 1.853624509143859 1.482270239008489 L 1.907004720312506 1.4255452443686116 L 2.017966151955602 1.5299638466141872 L 1.964585940786955 1.5866888412540652 Z" fill="#262626" transform="matrix(1,0,0,1,0,0)" fill-rule="nonzero"></path></g><g clip-path="url(&quot;#SvgjsClipPath1000&quot;)"><path d=" M 2.078486672019951 1.6939219236831091 L 2.008931540451591 1.6284625472489138 L 2.0623460038580945 1.5717520915450942 L 2.087332533700248 1.595260271900951 L 2.116099760589322 1.5765506685661868 L 2.158559896654746 1.6418646335755005 L 2.078486672019951 1.6939219236831091 Z" fill="#262626" transform="matrix(1,0,0,1,0,0)" fill-rule="nonzero"></path></g><g clip-path="url(&quot;#SvgjsClipPath1000&quot;)"><path d=" M 2.1688736371434434 1.5422490712151924 L 2.3007763843359794 1.4565707861806196 L 2.3431930761412305 1.5218717918400373 L 2.211290328948695 1.60755007687461 Z" fill="#262626" transform="matrix(1,0,0,1,0,0)" fill-rule="nonzero"></path></g><g clip-path="url(&quot;#SvgjsClipPath1000&quot;)"><path d=" M 2.3959198125364596 1.487583111776135 L 2.3534354412335556 1.422293382004301 L 2.4245416280006524 1.3761010193669165 L 2.503669678373717 1.406516242404649 L 2.4756779790840113 1.479221954845443 L 2.433654077293232 1.4630570514461063 L 2.3959198125364596 1.487583111776135 Z" fill="#262626" transform="matrix(1,0,0,1,0,0)" fill-rule="nonzero"></path></g><g clip-path="url(&quot;#SvgjsClipPath1000&quot;)"><path d=" M 2.7634471889246752 1.5899769901302545 L 2.660689782008353 1.5504250825624624 L 2.688681481298059 1.4777193701216675 L 2.791487358689342 1.51727127768946 Z M 2.619586819241824 1.5345994724878496 L 2.516829412325501 1.4950960353950178 L 2.5447726411402463 1.4223903229542236 L 2.647530048056569 1.4619179952845354 Z" fill="#262626" transform="matrix(1,0,0,1,0,0)" fill-rule="nonzero"></path></g><g clip-path="url(&quot;#SvgjsClipPath1000&quot;)"><path d=" M 2.8073382461166467 1.6054993931487502 L 2.8352927927872953 1.5328487189322735 L 2.8958463270393104 1.5561485247162754 L 2.867891780368662 1.6287991989327522 Z" fill="#262626" transform="matrix(1,0,0,1,0,0)" fill-rule="nonzero"></path></g></g><g transform="matrix(-0.3905072154059133,-0.9205998667803074,0.9205998667803074,-0.3905072154059133,-3.070421586158069,1.7145761854818629)"><g clip-path="url(&quot;#SvgjsClipPath1003&quot;)"><path d=" M -0.9676342316447535 2.0697805546745305 C -0.9555110656102708 2.0697805546745305 -0.9493520506102707 2.0615064993297025 -0.9379995825068225 2.046495405536599 L -0.8240786050930293 1.8942803746745303 C -0.8179195900930294 1.8861968043297028 -0.8150338518171674 1.878500772433151 -0.8150338518171674 1.870224527605565 C -0.8150338518171674 1.8619504722607372 -0.8179195900930294 1.854252250881427 -0.8240786050930293 1.846170870019358 L -0.9379995825068225 1.6939547444159095 C -0.9493520506102707 1.6789449643124614 -0.9555110656102708 1.6706702521228063 -0.9676342316447535 1.6706702521228063 C -0.9799500721619949 1.6706702521228063 -0.9861090871619949 1.6789449643124614 -0.9974615552654431 1.6939547444159095 L -1.1113831895240638 1.846170870019358 C -1.1175411097826846 1.854252250881427 -1.12042772385165 1.8619504722607372 -1.12042772385165 1.870224527605565 C -1.12042772385165 1.878500772433151 -1.1175411097826846 1.8861968043297028 -1.1113831895240638 1.8942803746745303 L -0.9974615552654431 2.046495405536599 C -0.9861090871619949 2.0615064993297025 -0.9799500721619949 2.0697805546745305 -0.9676342316447535 2.0697805546745305 Z" fill="#262626" transform="matrix(1,0,0,1,0,0)" fill-rule="nonzero"></path></g></g><g transform="matrix(0.3905072154059133,-0.9205998667803074,-0.9205998667803074,-0.3905072154059133,4.5214438378320425,6.829351716665432)"><g clip-path="url(&quot;#SvgjsClipPath1004&quot;)"><path d=" M 4.588281770246395 2.06978055467453 C 4.600404936280878 2.06978055467453 4.606563951280878 2.0615064993297025 4.6179164193843265 2.046495405536599 L 4.731837396798119 1.8942803746745303 C 4.737996411798119 1.8861968043297024 4.740882150073982 1.8785007724331508 4.740882150073982 1.8702245276055645 C 4.740882150073982 1.861950472260737 4.737996411798119 1.8542522508814265 4.731837396798119 1.8461708700193578 L 4.6179164193843265 1.6939547444159093 C 4.606563951280878 1.6789449643124612 4.600404936280878 1.670670252122806 4.588281770246395 1.670670252122806 C 4.575965929729154 1.670670252122806 4.569806914729154 1.6789449643124612 4.5584544466257055 1.6939547444159093 L 4.444532812367084 1.8461708700193578 C 4.438374892108464 1.8542522508814265 4.435488278039498 1.861950472260737 4.435488278039498 1.8702245276055645 C 4.435488278039498 1.8785007724331508 4.438374892108464 1.8861968043297024 4.444532812367084 1.8942803746745303 L 4.5584544466257055 2.046495405536599 C 4.569806914729154 2.0615064993297025 4.575965929729154 2.06978055467453 4.588281770246395 2.06978055467453 Z" fill="#262626" transform="matrix(1,0,0,1,0,0)" fill-rule="nonzero"></path></g></g></g><defs><clipPath id="SvgjsClipPath1002"><path d=" M 0 0 h 3.620647538601642 v 2.085999595638833 h -3.620647538601642 Z"></path></clipPath><clipPath id="SvgjsClipPath1000"><path d=" M 0 -1.6078905045631772e-16 L 3.620647538601642 -1.6078905045631772e-16 L 3.620647538601642 2.085999595638833 L 0 2.085999595638833 Z"></path></clipPath><clipPath id="SvgjsClipPath1003"><path d=" M -1.27416181785165 1.5562154788124614 h 0.6130551724137931 v 0.63495 h -0.6130551724137931 Z"></path></clipPath><clipPath id="SvgjsClipPath1004"><path d=" M 4.281754184039499 1.5562154788124611 h 0.6130551724137931 v 0.63495 h -0.6130551724137931 Z"></path></clipPath></defs></svg>